<?xml version="1.0" encoding="utf-8"?><svg xmlns="http://www.w3.org/2000/svg" xmlns:xlink="http://www.w3.org/1999/xlink" width="1440" height="821" preserveAspectRatio="xMidYMid" viewBox="0 0 1440 821" style="z-index:1;margin-right:-2px;display:block;background-repeat-y:initial;background-repeat-x:initial;background-color:rgb(241, 242, 243);animation-play-state:paused" ><g transform="" style="animation-play-state:paused" ><linearGradient id="lg-0.2370531686478412" x1="0" x2="1" y1="0" y2="0" style="animation-play-state:paused" ><stop stop-color="#0a0a0a" offset="0" style="animation-play-state:paused" ></stop>

  
<stop stop-color="#28292f" offset="1" style="animation-play-state:paused" ></stop></linearGradient>
<path fill="url(#lg-0.2370531686478412)" opacity="0.4" d="M 0 0 L 0 702.829 Q 144 641.789 288 616.123 T 576 499.971 T 864 528.3 T 1152 404.666 T 1440 274.26 L 1440 0 Z" style="opacity:0.4;animation-play-state:paused" ></path>
<path fill="url(#lg-0.2370531686478412)" opacity="0.4" d="M 0 0 L 0 762.97 Q 144 764.014 288 735.313 T 576 613.384 T 864 501.448 T 1152 417.975 T 1440 387.863 L 1440 0 Z" style="opacity:0.4;animation-play-state:paused" ></path>
<path fill="url(#lg-0.2370531686478412)" opacity="0.4" d="M 0 0 L 0 705.417 Q 144 731.565 288 688.063 T 576 628.268 T 864 474.852 T 1152 437.469 T 1440 343.399 L 1440 0 Z" style="opacity:0.4;animation-play-state:paused" ></path>
<path fill="url(#lg-0.2370531686478412)" opacity="0.4" d="M 0 0 L 0 801.276 Q 144 679.645 288 643.22 T 576 528.827 T 864 545.101 T 1152 430.046 T 1440 317.773 L 1440 0 Z" style="opacity:0.4;animation-play-state:paused" ></path>
<path fill="url(#lg-0.2370531686478412)" opacity="0.4" d="M 0 0 L 0 762.137 Q 144 702.788 288 666.778 T 576 574.3 T 864 508.135 T 1152 478.719 T 1440 412.894 L 1440 0 Z" style="opacity:0.4;animation-play-state:paused" ></path></g></svg>