<?xml version="1.0" encoding="utf-8"?><svg xmlns="http://www.w3.org/2000/svg" xmlns:xlink="http://www.w3.org/1999/xlink" width="1199" height="821" preserveAspectRatio="xMidYMid" viewBox="0 0 1199 821" style="z-index:1;margin-right:-2px;display:block;background-repeat-y:initial;background-repeat-x:initial;background-color:rgb(241, 242, 243);animation-play-state:paused" ><g transform="" style="animation-play-state:paused" ><defs style="animation-play-state:paused" ><linearGradient id="ldbk-photon-fmz46wi4ec-lg" x1="574.5" x2="1199" y1="0" y2="0" gradientUnits="userSpaceOnUse" style="animation-play-state:paused" ><stop stop-color="#0a0a0a" offset="0" style="animation-play-state:paused" ></stop>

    
<stop stop-color="#28292f" offset="1" style="animation-play-state:paused" ></stop></linearGradient>

  
<mask id="ldbk-photon-fmz46wi4ec-mask" style="animation-play-state:paused" ><g style="animation-play-state:paused" ><path d="M1499 -0.5 L600.7400045712553 -0.5 A15.5 15.5 0 0 1 600.7400045712553 31.5 L1499 31.5" fill="#fff" transform="matrix(1,0,0,1,39.358543395996094,0)" style="transform:matrix(1, 0, 0, 1, 39.3585, 0);animation-play-state:paused" ></path>
<path d="M1265.4366953421766 -0.5 L1300.8733906843531 -0.5 A15.5 15.5 0 0 1 1300.8733906843531 31.5 L1265.4366953421766 31.5 A15.5 15.5 0 0 1 1265.4366953421766 -0.5" fill="#000" transform="matrix(1,0,0,1,0,0)" opacity="1" style="transform:matrix(1, 0, 0, 1, 0, 0);animation-play-state:paused" ></path>
<path d="M1499 30.5 L523.256310127692 30.5 A15.5 15.5 0 0 0 523.256310127692 62.5 L1499 62.5" fill="#fff" transform="matrix(1,0,0,1,-42.29367446899414,0)" style="transform:matrix(1, 0, 0, 1, -42.2937, 0);animation-play-state:paused" ></path>
<path d="M671.5148941931988 30.5 L689.8874432031176 30.5 A15.5 15.5 0 0 1 689.8874432031176 62.5 L671.5148941931988 62.5 A15.5 15.5 0 0 1 671.5148941931988 30.5" fill="#fff" transform="matrix(1,0,0,1,0,0)" opacity="0.952381" style="transform:matrix(1, 0, 0, 1, 0, 0);opacity:0.952381;animation-play-state:paused" ></path>
<path d="M1499 61.5 L578.2754556361074 61.5 A15.5 15.5 0 0 1 578.2754556361074 93.5 L1499 93.5" fill="#fff" transform="matrix(1,0,0,1,0.84906005859375,0)" style="transform:matrix(1, 0, 0, 1, 0.84906, 0);animation-play-state:paused" ></path>
<path d="M1266.0478562748365 61.5 L1302.095712549673 61.5 A15.5 15.5 0 0 1 1302.095712549673 93.5 L1266.0478562748365 93.5 A15.5 15.5 0 0 1 1266.0478562748365 61.5" fill="#000" transform="matrix(1,0,0,1,-445.7320556640625,0)" opacity="0.793651" style="transform:matrix(1, 0, 0, 1, -445.732, 0);opacity:0.793651;animation-play-state:paused" ></path>
<path d="M1499 92.5 L527.382700037099 92.5 A15.5 15.5 0 0 0 527.382700037099 124.5 L1499 124.5" fill="#fff" transform="matrix(1,0,0,1,-47.60654067993164,0)" style="transform:matrix(1, 0, 0, 1, -47.6065, 0);animation-play-state:paused" ></path>
<path d="M639.8142656946169 92.5 L676.3209884876514 92.5 A15.5 15.5 0 0 1 676.3209884876514 124.5 L639.8142656946169 124.5 A15.5 15.5 0 0 1 639.8142656946169 92.5" fill="#fff" transform="matrix(1,0,0,1,0,0)" opacity="0.476191" style="transform:matrix(1, 0, 0, 1, 0, 0);opacity:0.476191;animation-play-state:paused" ></path>
<path d="M1499 123.5 L569.5802732338374 123.5 A15.5 15.5 0 0 1 569.5802732338374 155.5 L1499 155.5" fill="#fff" transform="matrix(1,0,0,1,38.18245315551758,0)" style="transform:matrix(1, 0, 0, 1, 38.1825, 0);animation-play-state:paused" ></path>
<path d="M1241.9359021620928 123.5 L1253.8718043241856 123.5 A15.5 15.5 0 0 1 1253.8718043241856 155.5 L1241.9359021620928 155.5 A15.5 15.5 0 0 1 1241.9359021620928 123.5" fill="#000" transform="matrix(1,0,0,1,-1303.9595947265625,0)" opacity="0.15873" style="transform:matrix(1, 0, 0, 1, -1303.96, 0);opacity:0.15873;animation-play-state:paused" ></path>
<path d="M1499 154.5 L500.1035443454533 154.5 A15.5 15.5 0 0 0 500.1035443454533 186.5 L1499 186.5" fill="#fff" transform="matrix(1,0,0,1,-8.98169994354248,0)" style="transform:matrix(1, 0, 0, 1, -8.9817, 0);animation-play-state:paused" ></path>
<path d="M648.7266469888958 154.5 L680.3254587778727 154.5 A15.5 15.5 0 0 1 680.3254587778727 186.5 L648.7266469888958 186.5 A15.5 15.5 0 0 1 648.7266469888958 154.5" fill="#fff" transform="matrix(1,0,0,1,0,0)" opacity="1" style="transform:matrix(1, 0, 0, 1, 0, 0);animation-play-state:paused" ></path>
<path d="M1499 185.5 L565.0993774880726 185.5 A15.5 15.5 0 0 1 565.0993774880726 217.5 L1499 217.5" fill="#fff" transform="matrix(1,0,0,1,26.41293716430664,0)" style="transform:matrix(1, 0, 0, 1, 26.4129, 0);animation-play-state:paused" ></path>
<path d="M1264.8050281901965 185.5 L1299.610056380393 185.5 A15.5 15.5 0 0 1 1299.610056380393 217.5 L1264.8050281901965 217.5 A15.5 15.5 0 0 1 1264.8050281901965 185.5" fill="#000" transform="matrix(1,0,0,1,-451.5544128417969,0)" opacity="0.952381" style="transform:matrix(1, 0, 0, 1, -451.554, 0);opacity:0.952381;animation-play-state:paused" ></path>
<path d="M1499 216.5 L548.1362130361284 216.5 A15.5 15.5 0 0 0 548.1362130361284 248.5 L1499 248.5" fill="#fff" transform="matrix(1,0,0,1,-6.7930145263671875,0)" style="transform:matrix(1, 0, 0, 1, -6.79301, 0);animation-play-state:paused" ></path>
<path d="M611.5870692280683 216.5 L629.1773513986584 216.5 A15.5 15.5 0 0 1 629.1773513986584 248.5 L611.5870692280683 248.5 A15.5 15.5 0 0 1 611.5870692280683 216.5" fill="#fff" transform="matrix(1,0,0,1,0,0)" opacity="0.31746" style="transform:matrix(1, 0, 0, 1, 0, 0);opacity:0.31746;animation-play-state:paused" ></path>
<path d="M1499 247.5 L560.4380244012531 247.5 A15.5 15.5 0 0 1 560.4380244012531 279.5 L1499 279.5" fill="#fff" transform="matrix(1,0,0,1,7.967862129211426,0)" style="transform:matrix(1, 0, 0, 1, 7.96786, 0);animation-play-state:paused" ></path>
<path d="M1242.6287904176415 247.5 L1255.257580835283 247.5 A15.5 15.5 0 0 1 1255.257580835283 279.5 L1242.6287904176415 279.5 A15.5 15.5 0 0 1 1242.6287904176415 247.5" fill="#000" transform="matrix(1,0,0,1,-865.3922119140625,0)" opacity="0.317461" style="transform:matrix(1, 0, 0, 1, -865.392, 0);opacity:0.317461;animation-play-state:paused" ></path>
<path d="M1499 278.5 L500.38224454286046 278.5 A15.5 15.5 0 0 0 500.38224454286046 310.5 L1499 310.5" fill="#fff" transform="matrix(1,0,0,1,-48.73857879638672,0)" style="transform:matrix(1, 0, 0, 1, -48.7386, 0);animation-play-state:paused" ></path>
<path d="M628.7837259270459 278.5 L652.4546308863809 278.5 A15.5 15.5 0 0 1 652.4546308863809 310.5 L628.7837259270459 310.5 A15.5 15.5 0 0 1 628.7837259270459 278.5" fill="#fff" transform="matrix(1,0,0,1,0,0)" opacity="1" style="transform:matrix(1, 0, 0, 1, 0, 0);animation-play-state:paused" ></path>
<path d="M1499 309.5 L566.6460921925682 309.5 A15.5 15.5 0 0 1 566.6460921925682 341.5 L1499 341.5" fill="#fff" transform="matrix(1,0,0,1,29.23257064819336,0)" style="transform:matrix(1, 0, 0, 1, 29.2326, 0);animation-play-state:paused" ></path>
<path d="M1269.0986512691231 309.5 L1308.1973025382463 309.5 A15.5 15.5 0 0 1 1308.1973025382463 341.5 L1269.0986512691231 341.5 A15.5 15.5 0 0 1 1269.0986512691231 309.5" fill="#000" transform="matrix(1,0,0,1,-120.49552154541016,0)" opacity="1" style="transform:matrix(1, 0, 0, 1, -120.496, 0);animation-play-state:paused" ></path>
<path d="M1499 340.5 L524.811460624986 340.5 A15.5 15.5 0 0 0 524.811460624986 372.5 L1499 372.5" fill="#fff" transform="matrix(1,0,0,1,-8.978798866271973,0)" style="transform:matrix(1, 0, 0, 1, -8.9788, 0);animation-play-state:paused" ></path>
<path d="M634.0351641070126 340.5 L657.6805524772885 340.5 A15.5 15.5 0 0 1 657.6805524772885 372.5 L634.0351641070126 372.5 A15.5 15.5 0 0 1 634.0351641070126 340.5" fill="#fff" transform="matrix(1,0,0,1,0,0)" opacity="0.47619" style="transform:matrix(1, 0, 0, 1, 0, 0);opacity:0.47619;animation-play-state:paused" ></path>
<path d="M1499 371.5 L569.768619553057 371.5 A15.5 15.5 0 0 1 569.768619553057 403.5 L1499 403.5" fill="#fff" transform="matrix(1,0,0,1,10.102218627929688,0)" style="transform:matrix(1, 0, 0, 1, 10.1022, 0);animation-play-state:paused" ></path>
<path d="M1253.1626309705423 371.5 L1276.3252619410846 371.5 A15.5 15.5 0 0 1 1276.3252619410846 403.5 L1253.1626309705423 403.5 A15.5 15.5 0 0 1 1253.1626309705423 371.5" fill="#000" transform="matrix(1,0,0,1,-821.7677612304688,0)" opacity="0.476191" style="transform:matrix(1, 0, 0, 1, -821.768, 0);opacity:0.476191;animation-play-state:paused" ></path>
<path d="M1499 402.5 L545.7649331310768 402.5 A15.5 15.5 0 0 0 545.7649331310768 434.5 L1499 434.5" fill="#fff" transform="matrix(1,0,0,1,-0.7098808288574219,0)" style="transform:matrix(1, 0, 0, 1, -0.709881, 0);animation-play-state:paused" ></path>
<path d="M644.1498553567633 402.5 L682.6054695481218 402.5 A15.5 15.5 0 0 1 682.6054695481218 434.5 L644.1498553567633 434.5 A15.5 15.5 0 0 1 644.1498553567633 402.5" fill="#fff" transform="matrix(1,0,0,1,0,0)" opacity="0.15873" style="transform:matrix(1, 0, 0, 1, 0, 0);opacity:0.15873;animation-play-state:paused" ></path>
<path d="M1499 433.5 L609.3133617688599 433.5 A15.5 15.5 0 0 1 609.3133617688599 465.5 L1499 465.5" fill="#fff" transform="matrix(1,0,0,1,25.6137638092041,0)" style="transform:matrix(1, 0, 0, 1, 25.6138, 0);animation-play-state:paused" ></path>
<path d="M1261.9719047885917 433.5 L1293.9438095771834 433.5 A15.5 15.5 0 0 1 1293.9438095771834 465.5 L1261.9719047885917 465.5 A15.5 15.5 0 0 1 1261.9719047885917 433.5" fill="#000" transform="matrix(1,0,0,1,-154.47584533691406,0)" opacity="1" style="transform:matrix(1, 0, 0, 1, -154.476, 0);animation-play-state:paused" ></path>
<path d="M1499 464.5 L582.00006954025 464.5 A15.5 15.5 0 0 0 582.00006954025 496.5 L1499 496.5" fill="#fff" transform="matrix(1,0,0,1,-7.637163162231445,0)" style="transform:matrix(1, 0, 0, 1, -7.63716, 0);animation-play-state:paused" ></path>
<path d="M645.7883435341396 464.5 L657.6127467039228 464.5 A15.5 15.5 0 0 1 657.6127467039228 496.5 L645.7883435341396 496.5 A15.5 15.5 0 0 1 645.7883435341396 464.5" fill="#fff" transform="matrix(1,0,0,1,0,0)" opacity="0.476191" style="transform:matrix(1, 0, 0, 1, 0, 0);opacity:0.476191;animation-play-state:paused" ></path>
<path d="M1499 495.5 L610.4759440225948 495.5 A15.5 15.5 0 0 1 610.4759440225948 527.5 L1499 527.5" fill="#fff" transform="matrix(1,0,0,1,6.622678756713867,0)" style="transform:matrix(1, 0, 0, 1, 6.62268, 0);animation-play-state:paused" ></path>
<path d="M1266.9720781820479 495.5 L1303.9441563640958 495.5 A15.5 15.5 0 0 1 1303.9441563640958 527.5 L1266.9720781820479 527.5 A15.5 15.5 0 0 1 1266.9720781820479 495.5" fill="#000" transform="matrix(1,0,0,1,-401.5806884765625,0)" opacity="0.952381" style="transform:matrix(1, 0, 0, 1, -401.581, 0);opacity:0.952381;animation-play-state:paused" ></path>
<path d="M1499 526.5 L608.668663483555 526.5 A15.5 15.5 0 0 0 608.668663483555 558.5 L1499 558.5" fill="#fff" transform="matrix(1,0,0,1,-27.301828384399414,0)" style="transform:matrix(1, 0, 0, 1, -27.3018, 0);animation-play-state:paused" ></path>
<path d="M664.325177804631 526.5 L688.2294976998041 526.5 A15.5 15.5 0 0 1 688.2294976998041 558.5 L664.325177804631 558.5 A15.5 15.5 0 0 1 664.325177804631 526.5" fill="#fff" transform="matrix(1,0,0,1,0,0)" opacity="0.317461" style="transform:matrix(1, 0, 0, 1, 0, 0);opacity:0.317461;animation-play-state:paused" ></path>
<path d="M1499 557.5 L635.0963830352092 557.5 A15.5 15.5 0 0 1 635.0963830352092 589.5 L1499 589.5" fill="#fff" transform="matrix(1,0,0,1,35.58778381347656,0)" style="transform:matrix(1, 0, 0, 1, 35.5878, 0);animation-play-state:paused" ></path>
<path d="M1257.9198085930332 557.5 L1285.8396171860663 557.5 A15.5 15.5 0 0 1 1285.8396171860663 589.5 L1257.9198085930332 589.5 A15.5 15.5 0 0 1 1257.9198085930332 557.5" fill="#000" transform="matrix(1,0,0,1,0,0)" opacity="1" style="transform:matrix(1, 0, 0, 1, 0, 0);animation-play-state:paused" ></path>
<path d="M1499 588.5 L601.056238728604 588.5 A15.5 15.5 0 0 0 601.056238728604 620.5 L1499 620.5" fill="#fff" transform="matrix(1,0,0,1,-24.42882537841797,0)" style="transform:matrix(1, 0, 0, 1, -24.4288, 0);animation-play-state:paused" ></path>
<path d="M664.6088420339937 588.5 L680.5917397427777 588.5 A15.5 15.5 0 0 1 680.5917397427777 620.5 L664.6088420339937 620.5 A15.5 15.5 0 0 1 664.6088420339937 588.5" fill="#fff" transform="matrix(1,0,0,1,0,0)" opacity="1" style="transform:matrix(1, 0, 0, 1, 0, 0);animation-play-state:paused" ></path>
<path d="M1499 619.5 L613.9523082033108 619.5 A15.5 15.5 0 0 1 613.9523082033108 651.5 L1499 651.5" fill="#fff" transform="matrix(1,0,0,1,29.919540405273438,0)" style="transform:matrix(1, 0, 0, 1, 29.9195, 0);animation-play-state:paused" ></path>
<path d="M1264.8529353706265 619.5 L1299.705870741253 619.5 A15.5 15.5 0 0 1 1299.705870741253 651.5 L1264.8529353706265 651.5 A15.5 15.5 0 0 1 1264.8529353706265 619.5" fill="#000" transform="matrix(1,0,0,1,-731.065673828125,0)" opacity="0.47619" style="transform:matrix(1, 0, 0, 1, -731.066, 0);opacity:0.47619;animation-play-state:paused" ></path>
<path d="M1499 650.5 L581.6741109016641 650.5 A15.5 15.5 0 0 0 581.6741109016641 682.5 L1499 682.5" fill="#fff" transform="matrix(1,0,0,1,-6.096031188964844,0)" style="transform:matrix(1, 0, 0, 1, -6.09603, 0);animation-play-state:paused" ></path>
<path d="M670.6350469840643 650.5 L690.8777609389833 650.5 A15.5 15.5 0 0 1 690.8777609389833 682.5 L670.6350469840643 682.5 A15.5 15.5 0 0 1 670.6350469840643 650.5" fill="#fff" transform="matrix(1,0,0,1,0,0)" opacity="1" style="transform:matrix(1, 0, 0, 1, 0, 0);animation-play-state:paused" ></path>
<path d="M1499 681.5 L625.2150150075006 681.5 A15.5 15.5 0 0 1 625.2150150075006 713.5 L1499 713.5" fill="#fff" transform="matrix(1,0,0,1,0.8526382446289062,0)" style="transform:matrix(1, 0, 0, 1, 0.852638, 0);animation-play-state:paused" ></path>
<path d="M1261.1049113981967 681.5 L1292.2098227963934 681.5 A15.5 15.5 0 0 1 1292.2098227963934 713.5 L1261.1049113981967 713.5 A15.5 15.5 0 0 1 1261.1049113981967 681.5" fill="#000" transform="matrix(1,0,0,1,-412.4845886230469,0)" opacity="0.95238" style="transform:matrix(1, 0, 0, 1, -412.485, 0);opacity:0.95238;animation-play-state:paused" ></path>
<path d="M1499 712.5 L588.2864362034113 712.5 A15.5 15.5 0 0 0 588.2864362034113 744.5 L1499 744.5" fill="#fff" transform="matrix(1,0,0,1,-29.44744300842285,0)" style="transform:matrix(1, 0, 0, 1, -29.4474, 0);animation-play-state:paused" ></path>
<path d="M669.107944553773 712.5 L703.3903860029499 712.5 A15.5 15.5 0 0 1 703.3903860029499 744.5 L669.107944553773 744.5 A15.5 15.5 0 0 1 669.107944553773 712.5" fill="#fff" transform="matrix(1,0,0,1,0,0)" opacity="0.47619" style="transform:matrix(1, 0, 0, 1, 0, 0);opacity:0.47619;animation-play-state:paused" ></path>
<path d="M1499 743.5 L615.969021945813 743.5 A15.5 15.5 0 0 1 615.969021945813 775.5 L1499 775.5" fill="#fff" transform="matrix(1,0,0,1,7.265028476715088,0)" style="transform:matrix(1, 0, 0, 1, 7.26503, 0);animation-play-state:paused" ></path>
<path d="M1262.2921457084249 743.5 L1294.5842914168497 743.5 A15.5 15.5 0 0 1 1294.5842914168497 775.5 L1262.2921457084249 775.5 A15.5 15.5 0 0 1 1262.2921457084249 743.5" fill="#000" transform="matrix(1,0,0,1,-604.6577758789062,0)" opacity="0.476191" style="transform:matrix(1, 0, 0, 1, -604.658, 0);opacity:0.476191;animation-play-state:paused" ></path>
<path d="M1499 774.5 L589.4344629457573 774.5 A15.5 15.5 0 0 0 589.4344629457573 806.5 L1499 806.5" fill="#fff" transform="matrix(1,0,0,1,-10.095428466796875,0)" style="transform:matrix(1, 0, 0, 1, -10.0954, 0);animation-play-state:paused" ></path>
<path d="M666.2988341542214 774.5 L699.1521666498046 774.5 A15.5 15.5 0 0 1 699.1521666498046 806.5 L666.2988341542214 806.5 A15.5 15.5 0 0 1 666.2988341542214 774.5" fill="#fff" transform="matrix(1,0,0,1,0,0)" opacity="0.95238" style="transform:matrix(1, 0, 0, 1, 0, 0);opacity:0.95238;animation-play-state:paused" ></path>
<path d="M1499 805.5 L604.3414606557739 805.5 A15.5 15.5 0 0 1 604.3414606557739 837.5 L1499 837.5" fill="#fff" transform="matrix(1,0,0,1,26.329944610595703,0)" style="transform:matrix(1, 0, 0, 1, 26.3299, 0);animation-play-state:paused" ></path>
<path d="M1262.0248131068947 805.5 L1294.0496262137895 805.5 A15.5 15.5 0 0 1 1294.0496262137895 837.5 L1262.0248131068947 837.5 A15.5 15.5 0 0 1 1262.0248131068947 805.5" fill="#000" transform="matrix(1,0,0,1,-738.1736450195312,0)" opacity="0.47619" style="transform:matrix(1, 0, 0, 1, -738.174, 0);opacity:0.47619;animation-play-state:paused" ></path></g></mask></defs>


<rect x="0" y="0" width="1199" height="821" fill="url(#ldbk-photon-fmz46wi4ec-lg)" mask="url(#ldbk-photon-fmz46wi4ec-mask)" style="animation-play-state:paused" ></rect></g></svg>